<mxfile host="app.diagrams.net" agent="Mozilla/5.0 (Windows NT 10.0; Win64; x64) AppleWebKit/537.36 (KHTML, like Gecko) Chrome/130.0.0.0 Safari/537.36" version="24.8.3">
  <diagram name="Página-1" id="-hNQNOBoWdc49GFBCAFE">
    <mxGraphModel dx="2200" dy="1170" grid="1" gridSize="10" guides="1" tooltips="1" connect="1" arrows="1" fold="1" page="1" pageScale="1" pageWidth="3300" pageHeight="4681" math="0" shadow="0">
      <root>
        <mxCell id="0" />
        <mxCell id="1" parent="0" />
        <mxCell id="nr1bMBN_gZwiYWZxmawI-154" style="edgeStyle=orthogonalEdgeStyle;rounded=0;orthogonalLoop=1;jettySize=auto;html=1;exitX=0.5;exitY=0.5;exitDx=0;exitDy=0;exitPerimeter=0;entryX=0;entryY=0.5;entryDx=0;entryDy=0;" edge="1" parent="1" source="eNu-A9OQDc99dVDA0O8h-1" target="nr1bMBN_gZwiYWZxmawI-37">
          <mxGeometry relative="1" as="geometry" />
        </mxCell>
        <mxCell id="eNu-A9OQDc99dVDA0O8h-1" value="Administrador" style="shape=umlActor;verticalLabelPosition=bottom;verticalAlign=top;html=1;outlineConnect=0;" parent="1" vertex="1">
          <mxGeometry x="90" y="550" width="30" height="60" as="geometry" />
        </mxCell>
        <mxCell id="eNu-A9OQDc99dVDA0O8h-3" value="Cidadão" style="shape=umlActor;verticalLabelPosition=bottom;verticalAlign=top;html=1;outlineConnect=0;" parent="1" vertex="1">
          <mxGeometry x="1750" y="400" width="30" height="60" as="geometry" />
        </mxCell>
        <mxCell id="vZEjTpDBOFY25wOexT_T-3" value="Cadastrar Supervisor" style="ellipse;whiteSpace=wrap;html=1;" parent="1" vertex="1">
          <mxGeometry x="1030" y="40" width="90" height="70" as="geometry" />
        </mxCell>
        <mxCell id="vZEjTpDBOFY25wOexT_T-10" value="Editar Supervisor" style="ellipse;whiteSpace=wrap;html=1;" parent="1" vertex="1">
          <mxGeometry x="1030" y="120" width="90" height="70" as="geometry" />
        </mxCell>
        <mxCell id="vZEjTpDBOFY25wOexT_T-11" value="Desativar Supervisor" style="ellipse;whiteSpace=wrap;html=1;" parent="1" vertex="1">
          <mxGeometry x="1030" y="200" width="90" height="70" as="geometry" />
        </mxCell>
        <mxCell id="vZEjTpDBOFY25wOexT_T-17" value="" style="swimlane;startSize=0;" parent="1" vertex="1">
          <mxGeometry x="370" y="350" width="200" height="270" as="geometry" />
        </mxCell>
        <mxCell id="vZEjTpDBOFY25wOexT_T-12" value="Desativar Operador" style="ellipse;whiteSpace=wrap;html=1;" parent="vZEjTpDBOFY25wOexT_T-17" vertex="1">
          <mxGeometry x="60" y="180" width="90" height="70" as="geometry" />
        </mxCell>
        <mxCell id="vZEjTpDBOFY25wOexT_T-9" value="Editar Operador" style="ellipse;whiteSpace=wrap;html=1;" parent="vZEjTpDBOFY25wOexT_T-17" vertex="1">
          <mxGeometry x="60" y="90" width="90" height="70" as="geometry" />
        </mxCell>
        <mxCell id="vZEjTpDBOFY25wOexT_T-2" value="Cadastrar Operador" style="ellipse;whiteSpace=wrap;html=1;" parent="vZEjTpDBOFY25wOexT_T-17" vertex="1">
          <mxGeometry x="60" y="10" width="90" height="70" as="geometry" />
        </mxCell>
        <mxCell id="nr1bMBN_gZwiYWZxmawI-7" value="Inserir Feedback" style="ellipse;whiteSpace=wrap;html=1;" vertex="1" parent="1">
          <mxGeometry x="680" y="400" width="120" height="80" as="geometry" />
        </mxCell>
        <mxCell id="nr1bMBN_gZwiYWZxmawI-8" value="Editar feedback" style="ellipse;whiteSpace=wrap;html=1;" vertex="1" parent="1">
          <mxGeometry x="680" y="520" width="120" height="80" as="geometry" />
        </mxCell>
        <mxCell id="nr1bMBN_gZwiYWZxmawI-9" value="Excluir Feedback" style="ellipse;whiteSpace=wrap;html=1;" vertex="1" parent="1">
          <mxGeometry x="680" y="620" width="120" height="80" as="geometry" />
        </mxCell>
        <mxCell id="nr1bMBN_gZwiYWZxmawI-11" value="" style="swimlane;startSize=0;" vertex="1" parent="1">
          <mxGeometry x="1290" y="10" width="260" height="1000" as="geometry" />
        </mxCell>
        <mxCell id="vZEjTpDBOFY25wOexT_T-4" value="Realizar Cadastro" style="ellipse;whiteSpace=wrap;html=1;" parent="nr1bMBN_gZwiYWZxmawI-11" vertex="1">
          <mxGeometry x="85" y="20" width="90" height="70" as="geometry" />
        </mxCell>
        <mxCell id="nr1bMBN_gZwiYWZxmawI-3" value="Inserir Feedback" style="ellipse;whiteSpace=wrap;html=1;" vertex="1" parent="nr1bMBN_gZwiYWZxmawI-11">
          <mxGeometry x="77.5" y="320" width="120" height="80" as="geometry" />
        </mxCell>
        <mxCell id="nr1bMBN_gZwiYWZxmawI-4" value="Visualizar rotas de coleta" style="ellipse;whiteSpace=wrap;html=1;" vertex="1" parent="nr1bMBN_gZwiYWZxmawI-11">
          <mxGeometry x="67.5" y="650" width="120" height="80" as="geometry" />
        </mxCell>
        <mxCell id="nr1bMBN_gZwiYWZxmawI-6" value="Excluir Feedback" style="ellipse;whiteSpace=wrap;html=1;" vertex="1" parent="nr1bMBN_gZwiYWZxmawI-11">
          <mxGeometry x="62.5" y="540" width="120" height="80" as="geometry" />
        </mxCell>
        <mxCell id="nr1bMBN_gZwiYWZxmawI-5" value="Editar feedback" style="ellipse;whiteSpace=wrap;html=1;" vertex="1" parent="nr1bMBN_gZwiYWZxmawI-11">
          <mxGeometry x="67.5" y="430" width="120" height="80" as="geometry" />
        </mxCell>
        <mxCell id="nr1bMBN_gZwiYWZxmawI-45" value="Editar informações do perfil" style="ellipse;whiteSpace=wrap;html=1;" vertex="1" parent="nr1bMBN_gZwiYWZxmawI-11">
          <mxGeometry x="35" y="110" width="170" height="80" as="geometry" />
        </mxCell>
        <mxCell id="nr1bMBN_gZwiYWZxmawI-46" value="Desativar perfil" style="ellipse;whiteSpace=wrap;html=1;" vertex="1" parent="nr1bMBN_gZwiYWZxmawI-11">
          <mxGeometry x="62.5" y="210" width="120" height="80" as="geometry" />
        </mxCell>
        <mxCell id="nr1bMBN_gZwiYWZxmawI-48" value="Visualizar histórico de coletas" style="ellipse;whiteSpace=wrap;html=1;" vertex="1" parent="nr1bMBN_gZwiYWZxmawI-11">
          <mxGeometry x="77.5" y="770" width="120" height="80" as="geometry" />
        </mxCell>
        <mxCell id="nr1bMBN_gZwiYWZxmawI-49" value="Visualiza&lt;span style=&quot;background-color: initial;&quot;&gt;r Estatísticas&lt;/span&gt;" style="ellipse;whiteSpace=wrap;html=1;" vertex="1" parent="nr1bMBN_gZwiYWZxmawI-11">
          <mxGeometry x="77.5" y="890" width="120" height="80" as="geometry" />
        </mxCell>
        <mxCell id="nr1bMBN_gZwiYWZxmawI-12" value="Visualizar feedback" style="ellipse;whiteSpace=wrap;html=1;" vertex="1" parent="1">
          <mxGeometry x="680" y="730" width="120" height="80" as="geometry" />
        </mxCell>
        <mxCell id="nr1bMBN_gZwiYWZxmawI-13" value="" style="swimlane;startSize=0;" vertex="1" parent="1">
          <mxGeometry x="660" y="10" width="160" height="300" as="geometry" />
        </mxCell>
        <mxCell id="nr1bMBN_gZwiYWZxmawI-14" value="" style="swimlane;startSize=0;" vertex="1" parent="1">
          <mxGeometry x="630" y="380" width="200" height="440" as="geometry" />
        </mxCell>
        <mxCell id="nr1bMBN_gZwiYWZxmawI-15" value="Cadastrar materiais" style="ellipse;whiteSpace=wrap;html=1;" vertex="1" parent="1">
          <mxGeometry x="440" y="680" width="120" height="80" as="geometry" />
        </mxCell>
        <mxCell id="nr1bMBN_gZwiYWZxmawI-16" value="Editar materiais" style="ellipse;whiteSpace=wrap;html=1;" vertex="1" parent="1">
          <mxGeometry x="440" y="800" width="120" height="80" as="geometry" />
        </mxCell>
        <mxCell id="nr1bMBN_gZwiYWZxmawI-17" value="Excluir materiais" style="ellipse;whiteSpace=wrap;html=1;" vertex="1" parent="1">
          <mxGeometry x="440" y="900" width="120" height="80" as="geometry" />
        </mxCell>
        <mxCell id="nr1bMBN_gZwiYWZxmawI-18" value="Visualizar materiais" style="ellipse;whiteSpace=wrap;html=1;" vertex="1" parent="1">
          <mxGeometry x="440" y="1010" width="120" height="80" as="geometry" />
        </mxCell>
        <mxCell id="nr1bMBN_gZwiYWZxmawI-19" value="" style="swimlane;startSize=0;" vertex="1" parent="1">
          <mxGeometry x="390" y="660" width="200" height="440" as="geometry" />
        </mxCell>
        <mxCell id="nr1bMBN_gZwiYWZxmawI-29" value="Gerar relatório" style="ellipse;whiteSpace=wrap;html=1;" vertex="1" parent="1">
          <mxGeometry x="720" y="900" width="120" height="80" as="geometry" />
        </mxCell>
        <mxCell id="nr1bMBN_gZwiYWZxmawI-30" value="Visualiz\r Relatório" style="ellipse;whiteSpace=wrap;html=1;" vertex="1" parent="1">
          <mxGeometry x="720" y="1020" width="120" height="80" as="geometry" />
        </mxCell>
        <mxCell id="nr1bMBN_gZwiYWZxmawI-33" value="" style="swimlane;startSize=0;" vertex="1" parent="1">
          <mxGeometry x="670" y="880" width="200" height="250" as="geometry" />
        </mxCell>
        <mxCell id="nr1bMBN_gZwiYWZxmawI-37" value="" style="swimlane;startSize=0;" vertex="1" parent="1">
          <mxGeometry x="330" width="820" height="1150" as="geometry" />
        </mxCell>
        <mxCell id="nr1bMBN_gZwiYWZxmawI-36" value="Visualiza&lt;span style=&quot;background-color: initial;&quot;&gt;r Estatísticas&lt;/span&gt;" style="ellipse;whiteSpace=wrap;html=1;" vertex="1" parent="nr1bMBN_gZwiYWZxmawI-37">
          <mxGeometry x="40" y="40" width="120" height="80" as="geometry" />
        </mxCell>
        <mxCell id="nr1bMBN_gZwiYWZxmawI-20" value="Cadastrar rotas" style="ellipse;whiteSpace=wrap;html=1;" vertex="1" parent="nr1bMBN_gZwiYWZxmawI-37">
          <mxGeometry x="650" y="350" width="120" height="80" as="geometry" />
        </mxCell>
        <mxCell id="nr1bMBN_gZwiYWZxmawI-21" value="Editar rotas" style="ellipse;whiteSpace=wrap;html=1;" vertex="1" parent="nr1bMBN_gZwiYWZxmawI-37">
          <mxGeometry x="650" y="470" width="120" height="80" as="geometry" />
        </mxCell>
        <mxCell id="nr1bMBN_gZwiYWZxmawI-22" value="Desativar&amp;nbsp;&lt;span style=&quot;background-color: initial;&quot;&gt;rotas&lt;/span&gt;" style="ellipse;whiteSpace=wrap;html=1;" vertex="1" parent="nr1bMBN_gZwiYWZxmawI-37">
          <mxGeometry x="650" y="570" width="120" height="80" as="geometry" />
        </mxCell>
        <mxCell id="nr1bMBN_gZwiYWZxmawI-23" value="Visualizar rotas" style="ellipse;whiteSpace=wrap;html=1;" vertex="1" parent="nr1bMBN_gZwiYWZxmawI-37">
          <mxGeometry x="650" y="680" width="120" height="80" as="geometry" />
        </mxCell>
        <mxCell id="nr1bMBN_gZwiYWZxmawI-24" value="" style="swimlane;startSize=0;" vertex="1" parent="nr1bMBN_gZwiYWZxmawI-37">
          <mxGeometry x="600" y="330" width="200" height="640" as="geometry" />
        </mxCell>
        <mxCell id="nr1bMBN_gZwiYWZxmawI-27" value="Designar operador" style="ellipse;whiteSpace=wrap;html=1;" vertex="1" parent="nr1bMBN_gZwiYWZxmawI-24">
          <mxGeometry x="50" y="450" width="120" height="80" as="geometry" />
        </mxCell>
        <mxCell id="nr1bMBN_gZwiYWZxmawI-28" value="Designar supervisor" style="ellipse;whiteSpace=wrap;html=1;" vertex="1" parent="nr1bMBN_gZwiYWZxmawI-24">
          <mxGeometry x="50" y="540" width="120" height="80" as="geometry" />
        </mxCell>
        <mxCell id="nr1bMBN_gZwiYWZxmawI-64" style="edgeStyle=orthogonalEdgeStyle;rounded=0;orthogonalLoop=1;jettySize=auto;html=1;exitX=0.5;exitY=0.5;exitDx=0;exitDy=0;exitPerimeter=0;entryX=0;entryY=0.5;entryDx=0;entryDy=0;" edge="1" parent="1" source="nr1bMBN_gZwiYWZxmawI-38" target="nr1bMBN_gZwiYWZxmawI-51">
          <mxGeometry relative="1" as="geometry" />
        </mxCell>
        <mxCell id="nr1bMBN_gZwiYWZxmawI-38" value="Operador&lt;div&gt;&lt;br&gt;&lt;/div&gt;" style="shape=umlActor;verticalLabelPosition=bottom;verticalAlign=top;html=1;outlineConnect=0;" vertex="1" parent="1">
          <mxGeometry x="190" y="1730" width="30" height="60" as="geometry" />
        </mxCell>
        <mxCell id="nr1bMBN_gZwiYWZxmawI-39" value="Supervisor" style="shape=umlActor;verticalLabelPosition=bottom;verticalAlign=top;html=1;outlineConnect=0;" vertex="1" parent="1">
          <mxGeometry x="1000" y="1580" width="30" height="60" as="geometry" />
        </mxCell>
        <mxCell id="nr1bMBN_gZwiYWZxmawI-50" style="edgeStyle=orthogonalEdgeStyle;rounded=0;orthogonalLoop=1;jettySize=auto;html=1;exitX=0.5;exitY=0.5;exitDx=0;exitDy=0;exitPerimeter=0;entryX=1.003;entryY=0.422;entryDx=0;entryDy=0;entryPerimeter=0;" edge="1" parent="1" source="eNu-A9OQDc99dVDA0O8h-3" target="nr1bMBN_gZwiYWZxmawI-11">
          <mxGeometry relative="1" as="geometry" />
        </mxCell>
        <mxCell id="nr1bMBN_gZwiYWZxmawI-51" value="" style="swimlane;startSize=0;" vertex="1" parent="1">
          <mxGeometry x="340" y="1390" width="460" height="710" as="geometry" />
        </mxCell>
        <mxCell id="nr1bMBN_gZwiYWZxmawI-53" value="Inserir Feedback" style="ellipse;whiteSpace=wrap;html=1;" vertex="1" parent="nr1bMBN_gZwiYWZxmawI-51">
          <mxGeometry x="61.25" y="160" width="120" height="80" as="geometry" />
        </mxCell>
        <mxCell id="nr1bMBN_gZwiYWZxmawI-54" value="Visualizar rotas de coleta" style="ellipse;whiteSpace=wrap;html=1;" vertex="1" parent="nr1bMBN_gZwiYWZxmawI-51">
          <mxGeometry x="60" y="500" width="120" height="80" as="geometry" />
        </mxCell>
        <mxCell id="nr1bMBN_gZwiYWZxmawI-55" value="Excluir Feedback" style="ellipse;whiteSpace=wrap;html=1;" vertex="1" parent="nr1bMBN_gZwiYWZxmawI-51">
          <mxGeometry x="60" y="390" width="120" height="80" as="geometry" />
        </mxCell>
        <mxCell id="nr1bMBN_gZwiYWZxmawI-56" value="Editar feedback" style="ellipse;whiteSpace=wrap;html=1;" vertex="1" parent="nr1bMBN_gZwiYWZxmawI-51">
          <mxGeometry x="60" y="270" width="120" height="80" as="geometry" />
        </mxCell>
        <mxCell id="nr1bMBN_gZwiYWZxmawI-57" value="Editar informações do perfil" style="ellipse;whiteSpace=wrap;html=1;" vertex="1" parent="nr1bMBN_gZwiYWZxmawI-51">
          <mxGeometry x="41.25" y="50" width="170" height="80" as="geometry" />
        </mxCell>
        <mxCell id="nr1bMBN_gZwiYWZxmawI-59" value="Visualizar histórico de coletas" style="ellipse;whiteSpace=wrap;html=1;" vertex="1" parent="nr1bMBN_gZwiYWZxmawI-51">
          <mxGeometry x="300" y="485" width="120" height="80" as="geometry" />
        </mxCell>
        <mxCell id="nr1bMBN_gZwiYWZxmawI-60" value="Visualiza&lt;span style=&quot;background-color: initial;&quot;&gt;r Estatísticas&lt;/span&gt;" style="ellipse;whiteSpace=wrap;html=1;" vertex="1" parent="nr1bMBN_gZwiYWZxmawI-51">
          <mxGeometry x="288.75" y="385" width="120" height="80" as="geometry" />
        </mxCell>
        <mxCell id="nr1bMBN_gZwiYWZxmawI-61" value="Atualizar status de coleta" style="ellipse;whiteSpace=wrap;html=1;" vertex="1" parent="nr1bMBN_gZwiYWZxmawI-51">
          <mxGeometry x="288.75" y="30" width="120" height="80" as="geometry" />
        </mxCell>
        <mxCell id="nr1bMBN_gZwiYWZxmawI-62" value="Visualizar materiais" style="ellipse;whiteSpace=wrap;html=1;" vertex="1" parent="nr1bMBN_gZwiYWZxmawI-51">
          <mxGeometry x="288.75" y="145" width="120" height="80" as="geometry" />
        </mxCell>
        <mxCell id="nr1bMBN_gZwiYWZxmawI-63" value="visualizar pontos de coleta" style="ellipse;whiteSpace=wrap;html=1;" vertex="1" parent="nr1bMBN_gZwiYWZxmawI-51">
          <mxGeometry x="288.75" y="265" width="120" height="80" as="geometry" />
        </mxCell>
        <mxCell id="nr1bMBN_gZwiYWZxmawI-65" value="Visualizar coleta" style="ellipse;whiteSpace=wrap;html=1;" vertex="1" parent="nr1bMBN_gZwiYWZxmawI-51">
          <mxGeometry x="60" y="610" width="120" height="80" as="geometry" />
        </mxCell>
        <mxCell id="nr1bMBN_gZwiYWZxmawI-122" value="Inserir Feedback" style="ellipse;whiteSpace=wrap;html=1;" vertex="1" parent="1">
          <mxGeometry x="1360" y="1440" width="120" height="80" as="geometry" />
        </mxCell>
        <mxCell id="nr1bMBN_gZwiYWZxmawI-123" value="Editar feedback" style="ellipse;whiteSpace=wrap;html=1;" vertex="1" parent="1">
          <mxGeometry x="1360" y="1560" width="120" height="80" as="geometry" />
        </mxCell>
        <mxCell id="nr1bMBN_gZwiYWZxmawI-124" value="Excluir Feedback" style="ellipse;whiteSpace=wrap;html=1;" vertex="1" parent="1">
          <mxGeometry x="1360" y="1660" width="120" height="80" as="geometry" />
        </mxCell>
        <mxCell id="nr1bMBN_gZwiYWZxmawI-125" value="Visualizar feedback" style="ellipse;whiteSpace=wrap;html=1;" vertex="1" parent="1">
          <mxGeometry x="1360" y="1770" width="120" height="80" as="geometry" />
        </mxCell>
        <mxCell id="nr1bMBN_gZwiYWZxmawI-127" value="Cadastrar materiais" style="ellipse;whiteSpace=wrap;html=1;" vertex="1" parent="1">
          <mxGeometry x="1190" y="1690" width="120" height="80" as="geometry" />
        </mxCell>
        <mxCell id="nr1bMBN_gZwiYWZxmawI-128" value="Editar materiais" style="ellipse;whiteSpace=wrap;html=1;" vertex="1" parent="1">
          <mxGeometry x="1190" y="1810" width="120" height="80" as="geometry" />
        </mxCell>
        <mxCell id="nr1bMBN_gZwiYWZxmawI-129" value="Excluir materiais" style="ellipse;whiteSpace=wrap;html=1;" vertex="1" parent="1">
          <mxGeometry x="1190" y="1910" width="120" height="80" as="geometry" />
        </mxCell>
        <mxCell id="nr1bMBN_gZwiYWZxmawI-130" value="Visualizar materiais" style="ellipse;whiteSpace=wrap;html=1;" vertex="1" parent="1">
          <mxGeometry x="1190" y="2020" width="120" height="80" as="geometry" />
        </mxCell>
        <mxCell id="nr1bMBN_gZwiYWZxmawI-132" value="Cadastrar rotas" style="ellipse;whiteSpace=wrap;html=1;" vertex="1" parent="1">
          <mxGeometry x="1540" y="1450" width="120" height="80" as="geometry" />
        </mxCell>
        <mxCell id="nr1bMBN_gZwiYWZxmawI-133" value="Editar rotas" style="ellipse;whiteSpace=wrap;html=1;" vertex="1" parent="1">
          <mxGeometry x="1540" y="1570" width="120" height="80" as="geometry" />
        </mxCell>
        <mxCell id="nr1bMBN_gZwiYWZxmawI-134" value="Desativar&amp;nbsp;&lt;span style=&quot;background-color: initial;&quot;&gt;rotas&lt;/span&gt;" style="ellipse;whiteSpace=wrap;html=1;" vertex="1" parent="1">
          <mxGeometry x="1540" y="1670" width="120" height="80" as="geometry" />
        </mxCell>
        <mxCell id="nr1bMBN_gZwiYWZxmawI-135" value="Visualizar rotas" style="ellipse;whiteSpace=wrap;html=1;" vertex="1" parent="1">
          <mxGeometry x="1540" y="1780" width="120" height="80" as="geometry" />
        </mxCell>
        <mxCell id="nr1bMBN_gZwiYWZxmawI-139" value="Gerar relatório" style="ellipse;whiteSpace=wrap;html=1;" vertex="1" parent="1">
          <mxGeometry x="1200" y="1440" width="120" height="80" as="geometry" />
        </mxCell>
        <mxCell id="nr1bMBN_gZwiYWZxmawI-140" value="Visualiz\r Relatório" style="ellipse;whiteSpace=wrap;html=1;" vertex="1" parent="1">
          <mxGeometry x="1200" y="1560" width="120" height="80" as="geometry" />
        </mxCell>
        <mxCell id="nr1bMBN_gZwiYWZxmawI-144" value="Cadastrar coleta" style="ellipse;whiteSpace=wrap;html=1;" vertex="1" parent="1">
          <mxGeometry x="1370" y="1890" width="120" height="80" as="geometry" />
        </mxCell>
        <mxCell id="nr1bMBN_gZwiYWZxmawI-145" value="Editar coleta" style="ellipse;whiteSpace=wrap;html=1;" vertex="1" parent="1">
          <mxGeometry x="1360" y="2010" width="120" height="80" as="geometry" />
        </mxCell>
        <mxCell id="nr1bMBN_gZwiYWZxmawI-146" value="Excluir coleta" style="ellipse;whiteSpace=wrap;html=1;" vertex="1" parent="1">
          <mxGeometry x="1540" y="2010" width="120" height="80" as="geometry" />
        </mxCell>
        <mxCell id="nr1bMBN_gZwiYWZxmawI-147" value="Visualizar coleta" style="ellipse;whiteSpace=wrap;html=1;" vertex="1" parent="1">
          <mxGeometry x="1540" y="1890" width="120" height="80" as="geometry" />
        </mxCell>
        <mxCell id="nr1bMBN_gZwiYWZxmawI-148" value="" style="swimlane;startSize=0;" vertex="1" parent="1">
          <mxGeometry x="1180" y="1390" width="500" height="750" as="geometry" />
        </mxCell>
        <mxCell id="nr1bMBN_gZwiYWZxmawI-149" style="edgeStyle=orthogonalEdgeStyle;rounded=0;orthogonalLoop=1;jettySize=auto;html=1;exitX=0.5;exitY=0.5;exitDx=0;exitDy=0;exitPerimeter=0;entryX=0.004;entryY=0.297;entryDx=0;entryDy=0;entryPerimeter=0;" edge="1" parent="1" source="nr1bMBN_gZwiYWZxmawI-39" target="nr1bMBN_gZwiYWZxmawI-148">
          <mxGeometry relative="1" as="geometry" />
        </mxCell>
        <mxCell id="nr1bMBN_gZwiYWZxmawI-150" value="Logar Administrador" style="ellipse;whiteSpace=wrap;html=1;" vertex="1" parent="1">
          <mxGeometry x="699" y="210" width="90" height="70" as="geometry" />
        </mxCell>
        <mxCell id="nr1bMBN_gZwiYWZxmawI-151" value="Editar Administrador" style="ellipse;whiteSpace=wrap;html=1;" vertex="1" parent="1">
          <mxGeometry x="699" y="130" width="90" height="70" as="geometry" />
        </mxCell>
        <mxCell id="nr1bMBN_gZwiYWZxmawI-152" value="Cadastrar Administrador" style="ellipse;whiteSpace=wrap;html=1;" vertex="1" parent="1">
          <mxGeometry x="699" y="40" width="90" height="70" as="geometry" />
        </mxCell>
        <mxCell id="nr1bMBN_gZwiYWZxmawI-153" value="" style="swimlane;startSize=0;" vertex="1" parent="1">
          <mxGeometry x="980" y="20" width="160" height="300" as="geometry" />
        </mxCell>
      </root>
    </mxGraphModel>
  </diagram>
</mxfile>
